<svg width="152" height="21" viewBox="0 0 152 21" fill="none" xmlns="http://www.w3.org/2000/svg">
<path d="M12.0493 15.024H5.76128L4.75328 18H0.45728L6.55328 1.152H11.3053L17.4013 18H13.0573L12.0493 15.024ZM10.9933 11.856L8.90528 5.688L6.84128 11.856H10.9933ZM31.0166 20.88L28.8566 17.976C28.2166 18.104 27.5926 18.168 26.9846 18.168C25.4006 18.168 23.9446 17.8 22.6166 17.064C21.3046 16.328 20.2566 15.304 19.4726 13.992C18.7046 12.664 18.3206 11.176 18.3206 9.528C18.3206 7.88 18.7046 6.4 19.4726 5.088C20.2566 3.776 21.3046 2.752 22.6166 2.016C23.9446 1.28 25.4006 0.912 26.9846 0.912C28.5686 0.912 30.0166 1.28 31.3286 2.016C32.6566 2.752 33.6966 3.776 34.4486 5.088C35.2166 6.4 35.6006 7.88 35.6006 9.528C35.6006 10.968 35.3046 12.288 34.7126 13.488C34.1366 14.672 33.3286 15.656 32.2886 16.44L35.9846 20.88H31.0166ZM22.5206 9.528C22.5206 11.016 22.9206 12.208 23.7206 13.104C24.5366 13.984 25.6246 14.424 26.9846 14.424C28.3286 14.424 29.4006 13.976 30.2006 13.08C31.0166 12.184 31.4246 11 31.4246 9.528C31.4246 8.04 31.0166 6.856 30.2006 5.976C29.4006 5.08 28.3286 4.632 26.9846 4.632C25.6246 4.632 24.5366 5.072 23.7206 5.952C22.9206 6.832 22.5206 8.024 22.5206 9.528ZM41.7227 1.152V11.232C41.7227 12.24 41.9707 13.016 42.4667 13.56C42.9627 14.104 43.6907 14.376 44.6507 14.376C45.6107 14.376 46.3467 14.104 46.8587 13.56C47.3707 13.016 47.6267 12.24 47.6267 11.232V1.152H51.7307V11.208C51.7307 12.712 51.4107 13.984 50.7707 15.024C50.1307 16.064 49.2667 16.848 48.1787 17.376C47.1067 17.904 45.9067 18.168 44.5787 18.168C43.2507 18.168 42.0587 17.912 41.0027 17.4C39.9627 16.872 39.1387 16.088 38.5307 15.048C37.9227 13.992 37.6187 12.712 37.6187 11.208V1.152H41.7227ZM64.8605 15.024H58.5725L57.5645 18H53.2685L59.3645 1.152H64.1165L70.2125 18H65.8685L64.8605 15.024ZM63.8045 11.856L61.7165 5.688L59.6525 11.856H63.8045ZM83.9478 1.152V4.44H79.4838V18H75.3798V4.44H70.9158V1.152H83.9478ZM94.3595 18L90.8555 11.64H89.8715V18H85.7675V1.152H92.6555C93.9835 1.152 95.1115 1.384 96.0395 1.848C96.9835 2.312 97.6875 2.952 98.1515 3.768C98.6155 4.568 98.8475 5.464 98.8475 6.456C98.8475 7.576 98.5275 8.576 97.8875 9.456C97.2635 10.336 96.3355 10.96 95.1035 11.328L98.9915 18H94.3595ZM89.8715 8.736H92.4155C93.1675 8.736 93.7275 8.552 94.0955 8.184C94.4795 7.816 94.6715 7.296 94.6715 6.624C94.6715 5.984 94.4795 5.48 94.0955 5.112C93.7275 4.744 93.1675 4.56 92.4155 4.56H89.8715V8.736ZM111.672 15.024H105.384L104.376 18H100.08L106.176 1.152H110.928L117.024 18H112.68L111.672 15.024ZM110.616 11.856L108.528 5.688L106.464 11.856H110.616ZM117.943 9.552C117.943 7.888 118.303 6.408 119.023 5.112C119.743 3.8 120.743 2.784 122.023 2.064C123.319 1.328 124.783 0.959999 126.415 0.959999C128.415 0.959999 130.127 1.488 131.551 2.544C132.975 3.6 133.927 5.04 134.407 6.864H129.895C129.559 6.16 129.079 5.624 128.455 5.256C127.847 4.888 127.151 4.704 126.367 4.704C125.103 4.704 124.079 5.144 123.295 6.024C122.511 6.904 122.119 8.08 122.119 9.552C122.119 11.024 122.511 12.2 123.295 13.08C124.079 13.96 125.103 14.4 126.367 14.4C127.151 14.4 127.847 14.216 128.455 13.848C129.079 13.48 129.559 12.944 129.895 12.24H134.407C133.927 14.064 132.975 15.504 131.551 16.56C130.127 17.6 128.415 18.12 126.415 18.12C124.783 18.12 123.319 17.76 122.023 17.04C120.743 16.304 119.743 15.288 119.023 13.992C118.303 12.696 117.943 11.216 117.943 9.552ZM146.448 18L140.784 10.56V18H136.68V1.152H140.784V8.544L146.4 1.152H151.224L144.696 9.408L151.464 18H146.448Z" fill="#323F47"/>
</svg>
